<svg width="1440" height="900" viewBox="0 0 1440 900" fill="none" xmlns="http://www.w3.org/2000/svg">
  <defs>
    <linearGradient id="bar" x1="0" y1="0" x2="1440" y2="0" gradientUnits="userSpaceOnUse">
      <stop stop-color="#1D1E28"/>
      <stop offset="1" stop-color="#202331"/>
    </linearGradient>
    <linearGradient id="canvas" x1="760" y1="142" x2="1428" y2="883" gradientUnits="userSpaceOnUse">
      <stop stop-color="#11131D"/>
      <stop offset="1" stop-color="#0C0E16"/>
    </linearGradient>
    <linearGradient id="accent" x1="876" y1="280" x2="1285" y2="646" gradientUnits="userSpaceOnUse">
      <stop stop-color="#A68BFF"/>
      <stop offset="1" stop-color="#62DFFF"/>
    </linearGradient>
    <pattern id="dots" width="28" height="28" patternUnits="userSpaceOnUse">
      <circle cx="2" cy="2" r="1.2" fill="#565C70" fill-opacity=".28"/>
    </pattern>
    <filter id="shadow" x="-30%" y="-30%" width="160%" height="160%">
      <feDropShadow dx="0" dy="14" stdDeviation="20" flood-color="#000" flood-opacity=".42"/>
    </filter>
  </defs>

  <rect width="1440" height="900" rx="20" fill="#10121B"/>
  <rect x=".5" y=".5" width="1439" height="899" rx="19.5" stroke="#FFFFFF" stroke-opacity=".15"/>

  <rect width="1440" height="62" rx="20" fill="url(#bar)"/>
  <rect y="40" width="1440" height="22" fill="url(#bar)"/>
  <circle cx="27" cy="30" r="7" fill="#FF605C"/>
  <circle cx="50" cy="30" r="7" fill="#FFBD44"/>
  <circle cx="73" cy="30" r="7" fill="#00CA4E"/>
  <text x="720" y="36" fill="#DFE1EC" font-family="-apple-system, BlinkMacSystemFont, sans-serif" font-size="15" text-anchor="middle" font-weight="600">Architecture.mmd</text>

  <rect y="62" width="1440" height="68" fill="#181A25"/>
  <line y1="130" x2="1440" y2="130" stroke="#FFFFFF" stroke-opacity=".09"/>
  <rect x="566" y="79" width="308" height="36" rx="9" fill="#11131B"/>
  <rect x="671" y="82" width="99" height="30" rx="7" fill="#4C456F"/>
  <text x="618" y="103" fill="#9095A6" font-family="-apple-system, sans-serif" font-size="12" text-anchor="middle">Editor</text>
  <text x="720" y="103" fill="#FFFFFF" font-family="-apple-system, sans-serif" font-size="12" text-anchor="middle" font-weight="600">Split</text>
  <text x="822" y="103" fill="#9095A6" font-family="-apple-system, sans-serif" font-size="12" text-anchor="middle">Preview</text>

  <g fill="#A7ACBC" font-family="-apple-system, sans-serif" font-size="12">
    <rect x="24" y="79" width="104" height="36" rx="8" fill="#242734"/>
    <text x="76" y="102" text-anchor="middle">Templates</text>
    <rect x="138" y="79" width="84" height="36" rx="8" fill="#242734"/>
    <text x="180" y="102" text-anchor="middle">Theme</text>
    <rect x="1176" y="79" width="88" height="36" rx="8" fill="#242734"/>
    <text x="1220" y="102" text-anchor="middle">Fit</text>
    <rect x="1275" y="79" width="140" height="36" rx="8" fill="#7869C8"/>
    <text x="1345" y="102" fill="#FFFFFF" text-anchor="middle" font-weight="600">Export</text>
  </g>

  <rect y="130" width="710" height="770" fill="#151722"/>
  <rect x="710" y="130" width="730" height="770" fill="url(#canvas)"/>
  <rect x="710" y="130" width="730" height="770" fill="url(#dots)"/>
  <line x1="710" y1="130" x2="710" y2="900" stroke="#FFFFFF" stroke-opacity=".11"/>

  <rect x="18" y="151" width="674" height="44" rx="10" fill="#1D202C"/>
  <circle cx="42" cy="173" r="5" fill="#7A6DD0"/>
  <text x="58" y="178" fill="#D8DBE7" font-family="SFMono-Regular, Menlo, monospace" font-size="14">architecture-beta</text>

  <g font-family="SFMono-Regular, Menlo, monospace" font-size="15">
    <g fill="#656B80" text-anchor="end">
      <text x="45" y="235">1</text><text x="45" y="265">2</text><text x="45" y="295">3</text>
      <text x="45" y="325">4</text><text x="45" y="355">5</text><text x="45" y="385">6</text>
      <text x="45" y="415">7</text><text x="45" y="445">8</text><text x="45" y="475">9</text>
      <text x="45" y="505">10</text><text x="45" y="535">11</text>
    </g>
    <g fill="#C9CDD9">
      <text x="70" y="235" fill="#C69BFF">architecture-beta</text>
      <text x="70" y="265"><tspan fill="#7DD8FF">group</tspan> api(cloud)[API]</text>
      <text x="70" y="295"><tspan fill="#7DD8FF">service</tspan> web(server)[Web App] <tspan fill="#7DD8FF">in</tspan> api</text>
      <text x="70" y="325"><tspan fill="#7DD8FF">service</tspan> worker(server)[Worker] <tspan fill="#7DD8FF">in</tspan> api</text>
      <text x="70" y="355"><tspan fill="#7DD8FF">service</tspan> db(database)[Database]</text>
      <text x="70" y="385"><tspan fill="#7DD8FF">service</tspan> cache(disk)[Cache]</text>
      <text x="70" y="425">web:R -- L:db</text>
      <text x="70" y="455">worker:R -- L:db</text>
      <text x="70" y="485">web:B -- T:cache</text>
      <text x="70" y="515">worker:B -- T:cache</text>
    </g>
  </g>

  <g filter="url(#shadow)">
    <rect x="840" y="254" width="236" height="118" rx="22" fill="#1B1E2B" stroke="#A68BFF" stroke-width="2"/>
    <circle cx="890" cy="313" r="24" fill="#7566C4"/>
    <path d="M879 313h22M890 302v22" stroke="#fff" stroke-width="3" stroke-linecap="round"/>
    <text x="933" y="307" fill="#FFFFFF" font-family="-apple-system, sans-serif" font-size="18" font-weight="650">Web App</text>
    <text x="933" y="334" fill="#969DB2" font-family="-apple-system, sans-serif" font-size="13">Native client</text>

    <rect x="1164" y="254" width="236" height="118" rx="22" fill="#1B1E2B" stroke="#62DFFF" stroke-width="2"/>
    <circle cx="1214" cy="313" r="24" fill="#287E9B"/>
    <path d="M1203 306h22M1203 313h22M1203 320h22" stroke="#fff" stroke-width="2.5" stroke-linecap="round"/>
    <text x="1257" y="307" fill="#FFFFFF" font-family="-apple-system, sans-serif" font-size="18" font-weight="650">Worker</text>
    <text x="1257" y="334" fill="#969DB2" font-family="-apple-system, sans-serif" font-size="13">Render engine</text>

    <rect x="840" y="558" width="236" height="118" rx="22" fill="#1B1E2B" stroke="#A68BFF" stroke-width="2"/>
    <circle cx="890" cy="617" r="24" fill="#7566C4"/>
    <ellipse cx="890" cy="608" rx="12" ry="5" stroke="#fff" stroke-width="2"/>
    <path d="M878 608v18c0 3 5 5 12 5s12-2 12-5v-18M878 617c0 3 5 5 12 5s12-2 12-5" stroke="#fff" stroke-width="2"/>
    <text x="933" y="611" fill="#FFFFFF" font-family="-apple-system, sans-serif" font-size="18" font-weight="650">Database</text>
    <text x="933" y="638" fill="#969DB2" font-family="-apple-system, sans-serif" font-size="13">Documents</text>

    <rect x="1164" y="558" width="236" height="118" rx="22" fill="#1B1E2B" stroke="#62DFFF" stroke-width="2"/>
    <circle cx="1214" cy="617" r="24" fill="#287E9B"/>
    <rect x="1202" y="607" width="24" height="20" rx="4" stroke="#fff" stroke-width="2"/>
    <path d="M1207 613h14M1207 620h10" stroke="#fff" stroke-width="2" stroke-linecap="round"/>
    <text x="1257" y="611" fill="#FFFFFF" font-family="-apple-system, sans-serif" font-size="18" font-weight="650">Cache</text>
    <text x="1257" y="638" fill="#969DB2" font-family="-apple-system, sans-serif" font-size="13">Local storage</text>
  </g>

  <g stroke="url(#accent)" stroke-width="3" stroke-linecap="round">
    <path d="M1077 313H1162"/>
    <path d="M958 374V556"/>
    <path d="M1282 374V556"/>
    <path d="M1077 617H1162"/>
  </g>
  <g fill="#D4CBFF">
    <path d="M1155 306l10 7-10 7z"/><path d="M951 548l7 10 7-10z"/>
    <path d="M1275 548l7 10 7-10z"/><path d="M1155 610l10 7-10 7z"/>
  </g>

  <rect x="1168" y="846" width="245" height="34" rx="17" fill="#242837" stroke="#FFFFFF" stroke-opacity=".1"/>
  <circle cx="1190" cy="863" r="6" fill="#61D899"/>
  <text x="1205" y="868" fill="#ABB1C4" font-family="-apple-system, sans-serif" font-size="12">Architecture · Rendered locally</text>
</svg>
